<mxfile host="app.diagrams.net" modified="2024-03-26T16:34:15.142Z" agent="Mozilla/5.0 (Windows NT 10.0; Win64; x64) AppleWebKit/537.36 (KHTML, like Gecko) Chrome/123.0.0.0 Safari/537.36" etag="NYS-ks5GzFYl4k0p5C-B" version="24.0.2" type="github">
  <diagram name="PÃ¡gina-1" id="L29QO1z4FaNkHWtU5n_f">
    <mxGraphModel dx="1434" dy="746" grid="1" gridSize="10" guides="1" tooltips="1" connect="1" arrows="1" fold="1" page="1" pageScale="1" pageWidth="827" pageHeight="1169" math="0" shadow="0">
      <root>
        <mxCell id="0" />
        <mxCell id="1" parent="0" />
        <mxCell id="QrtuupH0GYBMzl5WTB5s-1" value="" style="points=[[0.02,0.015,0],[0.5,0,0],[0.98,0.015,0],[1,0.38,0],[0.895,0.98,0],[0.5,1,0],[0.105,0.98,0],[0,0.38,0]];verticalLabelPosition=bottom;sketch=0;html=1;verticalAlign=top;aspect=fixed;align=center;pointerEvents=1;shape=mxgraph.cisco19.secure_endpoint_pc;fillColor=#005073;strokeColor=none;" vertex="1" parent="1">
          <mxGeometry x="70" y="290" width="100" height="80" as="geometry" />
        </mxCell>
        <mxCell id="QrtuupH0GYBMzl5WTB5s-6" style="edgeStyle=orthogonalEdgeStyle;rounded=0;orthogonalLoop=1;jettySize=auto;html=1;endArrow=none;endFill=0;" edge="1" parent="1" source="QrtuupH0GYBMzl5WTB5s-3">
          <mxGeometry relative="1" as="geometry">
            <mxPoint x="640" y="327" as="targetPoint" />
          </mxGeometry>
        </mxCell>
        <mxCell id="QrtuupH0GYBMzl5WTB5s-7" style="rounded=0;orthogonalLoop=1;jettySize=auto;html=1;endArrow=none;endFill=0;" edge="1" parent="1" source="QrtuupH0GYBMzl5WTB5s-3">
          <mxGeometry relative="1" as="geometry">
            <mxPoint x="170" y="327" as="targetPoint" />
          </mxGeometry>
        </mxCell>
        <mxCell id="QrtuupH0GYBMzl5WTB5s-3" value="" style="image;aspect=fixed;perimeter=ellipsePerimeter;html=1;align=center;shadow=0;dashed=0;fontColor=#4277BB;labelBackgroundColor=default;fontSize=12;spacingTop=3;image=img/lib/ibm/security/firewall.svg;" vertex="1" parent="1">
          <mxGeometry x="320" y="287" width="80" height="80" as="geometry" />
        </mxCell>
        <mxCell id="QrtuupH0GYBMzl5WTB5s-8" value="&lt;b&gt;FortIGate&lt;/b&gt;" style="text;html=1;align=center;verticalAlign=middle;resizable=0;points=[];autosize=1;strokeColor=none;fillColor=none;" vertex="1" parent="1">
          <mxGeometry x="320" y="250" width="80" height="30" as="geometry" />
        </mxCell>
        <mxCell id="QrtuupH0GYBMzl5WTB5s-9" value="&lt;b&gt;PC&lt;/b&gt;" style="text;html=1;align=center;verticalAlign=middle;resizable=0;points=[];autosize=1;strokeColor=none;fillColor=none;" vertex="1" parent="1">
          <mxGeometry x="90" y="250" width="40" height="30" as="geometry" />
        </mxCell>
        <mxCell id="QrtuupH0GYBMzl5WTB5s-10" value="&lt;b&gt;Internet&lt;/b&gt;" style="text;html=1;align=center;verticalAlign=middle;resizable=0;points=[];autosize=1;strokeColor=none;fillColor=none;" vertex="1" parent="1">
          <mxGeometry x="655" y="250" width="70" height="30" as="geometry" />
        </mxCell>
        <mxCell id="QrtuupH0GYBMzl5WTB5s-11" value="" style="image;aspect=fixed;perimeter=ellipsePerimeter;html=1;align=center;shadow=0;dashed=0;spacingTop=3;image=img/lib/active_directory/internet_cloud.svg;" vertex="1" parent="1">
          <mxGeometry x="640" y="277" width="142.86" height="90" as="geometry" />
        </mxCell>
        <mxCell id="QrtuupH0GYBMzl5WTB5s-12" value="Office 365" style="text;html=1;align=center;verticalAlign=middle;resizable=0;points=[];autosize=1;strokeColor=none;fillColor=none;" vertex="1" parent="1">
          <mxGeometry x="671.43" y="307" width="80" height="30" as="geometry" />
        </mxCell>
      </root>
    </mxGraphModel>
  </diagram>
</mxfile>
